<svg id="Calque_1" data-name="Calque 1" xmlns="http://www.w3.org/2000/svg" viewBox="0 0 1287.61 708.07"><path d="M972.64,346.58c12.38-8.91,25-17.55,37-26.86,5.63-4.34,13.83-9.46,14.67-15.14,2.58-17.38,14.58-19.6,27.93-22.94,7.52-1.88,16.73-5.61,20.71-11.52,17-25.22,22.21-28,57.1-22-29.84,34.57-38.07,72.62-18,114.2,2.87,6,11,9.39,18.89,15.78-15.58,22.17,3.17,41.63,15.67,64.83,14.37,26.68,37.65,36.47,65.36,44.7-21.19,15.17-41.28,18.66-63.22,11.86-5-1.53-11.36-4.59-15.07-2.78-19.65,9.61-37.73,9.77-55.58-4-2.56-2-7.92-1-11.82-.43-34.54,5.39-54.62-3.71-70.27-35.77-9.57-19.6-15.68-40.88-23.35-61.41Zm143,128c-34.21-51.89-67.92-103.76-51.29-171.4C1034.63,340.05,1065.51,447.36,1115.66,474.57Zm-73.09-14.22c-10.65-33.09-22.26-69.18-33-102.51C998.74,382.39,1015.44,435.23,1042.57,460.35Z" transform="translate(-972.64 192.85)"/><path d="M2260.25,395c-11.06,31.58-26.11,60.72-48.46,86.12-10.87,12.36-20.27,21.19-38.29,12.32-6.84-3.36-17.54-2.31-25.26.31-15.91,5.41-30.6,15.7-46.84,0-2.5-2.42-11.63-.46-16.18,2.13-20.57,11.67-39.85,15.54-58.75-7.4,51-16.61,72.39-58.35,88.69-104.61,16.58-47,19.79-92.6-13.3-135,30.38-6.6,40.73-2.17,57.7,20.59,4.17,5.59,12.06,12,18.09,11.89,15.61-.38,20.34,9.5,26,20.42,3.13,6,8.28,15.68,12.37,15.6,22.21-.42,32.2,15.53,44.18,29.27Zm-69.16-7.14c-8.44-10-14.43-17-20.46-24.17-18.19,38.21-36.66,77.05-55.14,115.88a272.2,272.2,0,0,0,38.7-46.17c8.58-12.89,9.55-31.41,29.73-35.07C2187.31,397.73,2189.47,390.39,2191.09,387.88Zm29.55-18.43L2184,463.68C2217.49,438.48,2224,405.28,2220.64,369.45Z" transform="translate(-972.64 192.85)"/><path d="M1820.66,304.24l247.81,48.64C2057,366.43,2050.52,374,2045,380.58l-25.73-17.32c15.48,34.63,5.1,63.44-.1,92.34-.44,2.44-9,3.43-15.37,5.67-1.71-20-15.15-39,7.45-54,2-1.36,2.34-7.42,1.47-10.78-2.74-10.5-6.42-20.75-10.19-32.52-119.89-20.51-242.74-29.64-367.23-29.75,2,18,10.51,21.59,26.19,19.75,36.17-4.24,72.49-8.93,108.54,3.24,7.27,2.45,16.67-1.16,25-2.25,13.25-1.72,22.3.22,21.42,17.27-1.61,31.27-16.19,55.06-39.13,75.09-7.4,6.47-13.35,14.58-23.06,25.38h44.86l2.81,4.8c-4.73,3.44-9.48,9.8-14.18,9.76-13.67-.11-31.65,8.12-35.46-11.15l-140.3,37-9.54-10.46c-3.26,3.67-5.35,7-8.32,9.08-2.71,1.89-6.38,2.4-9.62,3.52-3.17-24.64-25.17-11.71-37.55-18.06-18.33-9.41-38.94-14.3-58.38-21.63-12-4.52-24.13-13.06-29.64,7.85-1.21,4.59-6.16,8.18-9.39,12.23-1.71-5.45-3.43-10.89-5.42-17.18l-21.21-12.09,3.1-7.26,38.6,4.54c-17.92-20.17-35.4-38.27-50.83-58-6.55-8.36-11.78-20-12.26-30.33-.62-13.5,9.4-20.74,23.64-20.69,37.66.12,75.33.52,113-.14,24-.42,47.94-2,71.79-4.29,6.06-.59,11.63-6.16,17.42-9.44q-.87-4-1.76-8.05c-65.6,2.05-131.2,4-196.78,6.6-2.37.1-4.48,6.84-6.72,10.49-26.9-14.06-190.51,3.08-205,24.75h53.54l.58,4.48-15.39,11.57h-48.28v69.57c-7.11-24.59-12.44-44.82-18.88-64.7-4.36-13.43-2.15-20.86,13.54-20.81,3.49,0,7-2.09,9.92-7.83l-55.36,7.79-1.83-7.16c8.8-4.13,17.24-9.63,26.48-12.12,20.9-5.65,42.62-9.44,31-43.31l8,2,8.11,23.49c40.93-7.59,82.29-15.45,123.74-22.81a189.57,189.57,0,0,1,33.5-3.2c16.9.05,22.19-10.79,26.74-24.21,5.9-17.37,11.67-35,20-51.28,7.72-15,6.54-27.71-.82-42.08s-12.74-29.81-18.47-43.53c-4.16-4.33-11-8-11.64-12.64-5.36-36.89-19.93-72.67-13.41-111.13,1.34-7.9-1.17-16.45-1.74-22.94,13.27-9.58,28.42-19.77,42.72-31,18.28-14.42,37.76-22.57,61.86-22,50.4,1.14,100.86,0,151.28.56,16.3.2,31.24.54,35.13-25.25,19.43,29.79,46.7,27,72.1,24.58,53.75-5.18,105.46,61,94.18,119.81-9.27,48.36-23.81,94.19-52.67,134.88-3.3,4.65-3.44,16-.06,20.2C1810.33,249.62,1817.86,277.68,1820.66,304.24ZM1690.14,56.12c-3.73-8.66-4.86-14.5-8.24-18.39-5.76-6.62-12.66-16.7-19.55-17.1-28.71-1.64-57.6-.08-86.42,0-19,.08-38.49,2.15-57-1-37.11-6.3-53.83,7.41-49.89,44.3.43,4-.5,8.17.2,12.07,3.49,19.31,4.73,39.54,11.57,57.62,13.3,35.18,16.51,35.56,50.12,22.81,17.32-6.56,34.55-13.36,50.26-19.46,49.19,6.64,102-1.31,151,34.71,11.62-38.29,23.38-70.77,30.69-104.22,2.87-13.16,8.36-31.69-8.5-42.32-19.06-12-42.88-5.66-54.92,13.75C1696.8,43.15,1694.67,47.69,1690.14,56.12Z" transform="translate(-972.64 192.85)"/><path d="M1399.48-71C1346-76.89,1310.13-39.8,1272.8-7.63c-57.84,49.84-90.29,116.53-117,186.2-5.57,14.52-6.84,30.75-9.51,46.3-4.16,24.29-21.67,13.45-34.08,12.21-13.94-1.4-9.71-11.21-7.91-21.21Q1125.67,97.16,1205.05,6.74c1-1.15.74-3.42,1.82-9.17-36.42,34.87-60.37,73.71-76.76,116.72-15.89,41.7-28.58,84.62-44.43,132.28-3.75-8.88-8.26-14.16-7.34-18.19,17.89-78.23,45.56-151.53,96.2-216,53.25-67.74,119.23-117.8,194.66-157.17,6.86-3.58,12.7-9.13,19.76-14.32,3.22.28,9.56,2.53,14.85,1a942.92,942.92,0,0,1,184.49-33.1c142-11,266.94,30.71,379.5,114.27C2051.74-14.54,2109,67,2136.54,168.35c5,18.33,7.59,37.34,10.53,56.15.62,3.94-2.11,8.41-3.3,12.63-2.86-3.11-7.35-5.79-8.32-9.4-5.94-22.16-10.8-44.6-16.59-66.79-2.54-9.71-6.43-19.07-9.7-28.59l-5.89,1.85c9.18,32.37,18.36,64.74,27.65,97.48-7.07,2.12-13.22,4.84-19.62,5.72-23.13,3.17-25,.31-29.05-22.74-3-17.3-9.64-33.95-14.43-51-2.6-9.25-4.72-18.64-6.75-26.76L2086,126c-3.92-2.36-8.53-7.33-11.6-6.52-6,1.58-11.07,6.41-17.76,10.68-15.54-24.45-28.2-49.45-45.61-70.52-24-29-51.64-55-77.56-82.46C1927.6-29,1923.23-37,1916.6-42.2c-7.79-6.1-17.28-10-26-14.91-6.26-3.47-12.39-7.26-18.86-10.31-10.49-4.94-22.22-7.92-31.68-14.31-45.43-30.71-97.09-43.3-149.85-51.83-95.55-15.44-187,3.84-276.17,36.92C1407.67-94.29,1405.2-81.57,1399.48-71Zm13.15-72.39,166.79-35.32C1517.09-178.43,1463.26-166.2,1412.63-143.36ZM1710-170.23l1.38-3.53c-13.61-1.48-27.23-3-40.85-4.44-13.16-1.4-26.31-3.23-39.51-3.9s-26.53-.14-39.8-.14c.07.81.13,1.62.2,2.43Zm276.51,136c1.2-1.29,2.4-2.59,3.61-3.88l49.16,49.14-3.82,3.7Z" transform="translate(-972.64 192.85)"/><path d="M1195.36,349.92c-21.2-30.16-39.08-55.51-56.6-81.09-.47-.68,2.9-4,4.71-6.38,22,12.78,26.56,55.61,68.79,31.38.28,3.33.57,6.66.85,10-6.48,6.42-13,12.83-20.7,20.47C1192.94,328.89,1193.88,337.11,1195.36,349.92Z" transform="translate(-972.64 192.85)"/><path d="M1805.1,491.14c37.12-30.95,63-31,71.71-2C1854.6,504.71,1831.8,490.64,1805.1,491.14Z" transform="translate(-972.64 192.85)"/><path d="M2036.25,346.81c-3.16-31.92,19.63-68.57,50.29-85.28Z" transform="translate(-972.64 192.85)"/><path d="M1939,231.8l-17.42,17.82c-4.16-5.22-12.38-11.2-11.58-15.5,1.38-7.41,8.37-13.77,13-20.57Z" transform="translate(-972.64 192.85)"/><path d="M2008.5,172.79c12.42,3,25.38,5.55,25,21.67-.09,3.45-10.74,10.56-12.84,9.39C2009.26,197.48,2001.2,188.21,2008.5,172.79Z" transform="translate(-972.64 192.85)"/><path d="M1655.44-115.19l-40.09,6.61C1637.93-134.08,1644.91-135.36,1655.44-115.19Z" transform="translate(-972.64 192.85)"/><path d="M994,286.94c-15.22-9-15.49-10.11-11.19-43.25C1000.51,256.06,987.6,274.06,994,286.94Z" transform="translate(-972.64 192.85)"/><path d="M1238.26,247.46l27.68,25.34C1234,274.68,1232.86,273.57,1238.26,247.46Z" transform="translate(-972.64 192.85)"/><path d="M1014.58,203.19h28.07q.93,2.87,1.88,5.74c-5.82,2.82-11.69,7.91-17.44,7.78-5.2-.12-10.27-6-15.39-9.26Z" transform="translate(-972.64 192.85)"/><path d="M1345.68,383.59h25.11l2.06,3.49-27.17,19.33Z" transform="translate(-972.64 192.85)"/><path d="M1579.81,51.71l-29.22,35.52c-4-19.7-7-34.76-10.88-53.81Z" transform="translate(-972.64 192.85)"/></svg>